<svg xmlns="http://www.w3.org/2000/svg" width="800" height="800" viewBox="0 0 800 800">
  <defs>
    <style>
      .cls-1 {
        fill: #000;
        stroke: #000;
        stroke-width: 1px;
        fill-rule: evenodd;
        filter: url('#colorInvert');
      }
    </style>
    <filter id="colorInvert">
      <feColorMatrix type="matrix" values="-1 0 0 0 1 
                                          0 -1 0 0 1 
                                          0 0 -1 0 1 
                                          0 0 0 1 0"/>
    </filter>
  </defs>
  <path id="形状_1" data-name="形状 1" class="cls-1" d="M384.539,178.532c135.44-2.144,217.949,55.481,255.312,151.563,53.324,137.13-83.33,252.34-175.921,281.474-26.607,8.371-65.993,18.716-102.847,12.63-24.73-4.084-47.669-6.735-67.662-15.337-75.176-32.344-147.892-127.357-118.183-245.387,5.284-20.993,12.372-43.175,22.554-60.445,28.053-47.581,67.013-87.655,120.89-109.161C338.358,186.014,363.774,186.88,384.539,178.532Zm2.707,23.456c-20.373,7.9-42.363,6.084-60.445,13.533-57.366,23.631-101.644,70.958-122.693,130.813-46.315,131.692,38.78,234.316,147.052,251.7l45.108,2.707c101.773-16.954,178.974-58.176,214.713-139.835,46.43-106.083-22.1-200.589-94.726-234.562C480.24,209.5,440.96,201.763,387.246,201.988Zm-34.282,50.521L505.429,290.4q0.452,3.608.9,7.217c-1.463,2.889-1.668,3.779-4.511,5.413-10.328,4.078-30.274-4.6-39.695-7.217-32.481-9.025-67.716-21.167-102.846-24.359-11.508,19.591-25.242,62.342,10.826,65.858l21.652-2.706c10.179-5.141,14.863-20.842,22.554-28.87h4.511c21.78,11.466,28.937,33.166,55.031,42.4,12.048-7.473,7.988-29.012,18.946-36.086,3.337-1.144,7.5.394,10.826,1.8,1.521,43.242-23.3,61.318-56.837,38.793,12.35,29.991-6.431,34.477-9.923,56.836,6.988,11.613,49.095,86.588,46.912,94.727-2.112,5.21-5.2,6.622-9.022,9.923l-2.706-.9c-11.758-5.545-36.911-63.088-44.206-77.586-5.459-10.849-9.011-29.812-25.26-18.945-3.66,14.314-38.889,94.081-47.815,98.335a7.744,7.744,0,0,1-6.315.9c-5.684-1.289-7.242-4.076-9.924-8.12,1.015-22.741,33.278-78.191,43.3-100.14-8.622-13.924-21.823-32.992-8.119-52.325l-0.9-1.8C314.982,352.376,326.839,279.077,352.964,252.509ZM66.979,303.932c46.536,4.5,40.813,85.837-4.511,78.488-34.442-5.585-44.281-52.511-16.239-71.271Zm660.381,4.511c52.7-1.842,58.971,69.847,9.924,77.586-30.671,4.839-45.972-39.861-30.674-63.152C711.349,315.664,719.822,312.937,727.36,308.443ZM418.822,327.388L411.6,341.823c14.56-.45,23.556,2.456,31.576,8.119C438.088,342.979,427.563,330.146,418.822,327.388Zm-12.631,36.989c-4.638,3.082-6.646,4.633-9.923,9.021,1.428,6.939,5.786,10.236,13.532,10.826,4.029-2.465,6.822-2.755,9.022-7.217v-6.315C415.843,366.831,412.511,365,406.191,364.377Z" transform="translate(-0.313 -2.25)"/>
</svg>
